<svg width="24" height="24" viewBox="0 0 24 24" fill="none" xmlns="http://www.w3.org/2000/svg">
<path d="M5.58075 20.1767C5.48325 20.7391 6.03074 21.1786 6.51323 20.9278L12.0006 18.0704L17.4868 20.9278C17.9693 21.1786 18.5168 20.7391 18.4193 20.178L17.3818 14.1871L21.7842 9.93651C22.1967 9.53881 21.9842 8.8118 21.4317 8.73327L15.3093 7.85174L12.5794 2.37129C12.5274 2.26019 12.4453 2.16633 12.3428 2.10061C12.2402 2.03489 12.1214 2 12 2C11.8787 2 11.7598 2.03489 11.6573 2.10061C11.5547 2.16633 11.4727 2.26019 11.4206 2.37129L8.69069 7.853L2.56831 8.73454C2.01707 8.81306 1.80332 9.54007 2.21456 9.93778L6.61823 14.1884L5.58075 20.1793V20.1767ZM11.7119 16.6721L7.10447 19.071L7.97196 14.0592C7.99228 13.9438 7.98433 13.8252 7.9488 13.7136C7.91328 13.6021 7.85126 13.5011 7.76821 13.4196L4.13578 9.91118L9.20069 9.18164C9.30556 9.16559 9.40504 9.12402 9.4906 9.06049C9.57615 8.99696 9.64523 8.91337 9.69193 8.81686L11.9981 4.18375L14.3068 8.81686C14.3535 8.91337 14.4226 8.99696 14.5082 9.06049C14.5937 9.12402 14.6932 9.16559 14.7981 9.18164L19.863 9.90991L16.2306 13.4183C16.1473 13.5 16.0852 13.6012 16.0496 13.713C16.0141 13.8247 16.0063 13.9436 16.0268 14.0592L16.8943 19.071L12.2869 16.6721C12.1978 16.6256 12.099 16.6013 11.9988 16.6013C11.8985 16.6013 11.7997 16.6256 11.7106 16.6721H11.7119Z" fill="#333C3F"/>
</svg>
